<mxfile host="Electron" modified="2023-06-18T08:24:23.152Z" agent="Mozilla/5.0 (Windows NT 10.0; Win64; x64) AppleWebKit/537.36 (KHTML, like Gecko) draw.io/21.4.0 Chrome/112.0.5615.204 Electron/24.5.1 Safari/537.36" etag="2C9oh-I7AY3sbiCgxLrp" version="21.4.0" type="device">
  <diagram id="C5RBs43oDa-KdzZeNtuy" name="Page-1">
    <mxGraphModel dx="1206" dy="702" grid="1" gridSize="10" guides="1" tooltips="1" connect="1" arrows="1" fold="1" page="1" pageScale="1" pageWidth="827" pageHeight="1169" math="0" shadow="0">
      <root>
        <mxCell id="WIyWlLk6GJQsqaUBKTNV-0" />
        <mxCell id="WIyWlLk6GJQsqaUBKTNV-1" parent="WIyWlLk6GJQsqaUBKTNV-0" />
        <mxCell id="KZHoiBi9bxjTLL4KjkRE-18" value="" style="rounded=0;whiteSpace=wrap;html=1;dashed=1;strokeWidth=2;fillColor=#fad9d5;strokeColor=#ae4132;" parent="WIyWlLk6GJQsqaUBKTNV-1" vertex="1">
          <mxGeometry x="220" y="450" width="400" height="200" as="geometry" />
        </mxCell>
        <mxCell id="a1D5JyXYqdKVJsgyKpfg-0" style="edgeStyle=orthogonalEdgeStyle;rounded=0;orthogonalLoop=1;jettySize=auto;html=1;entryX=0.5;entryY=1;entryDx=0;entryDy=0;strokeColor=#f0a30a;strokeWidth=3;" parent="WIyWlLk6GJQsqaUBKTNV-1" source="KZHoiBi9bxjTLL4KjkRE-0" target="KZHoiBi9bxjTLL4KjkRE-8" edge="1">
          <mxGeometry relative="1" as="geometry">
            <Array as="points">
              <mxPoint x="420" y="810" />
              <mxPoint x="420" y="810" />
            </Array>
          </mxGeometry>
        </mxCell>
        <mxCell id="KZHoiBi9bxjTLL4KjkRE-0" value="&lt;font color=&quot;#ffffff&quot; style=&quot;font-size: 18px;&quot;&gt;Client&lt;/font&gt;" style="rounded=0;whiteSpace=wrap;html=1;strokeWidth=3;strokeColor=none;fillColor=#f0a30a;fontColor=#000000;labelBackgroundColor=none;" parent="WIyWlLk6GJQsqaUBKTNV-1" vertex="1">
          <mxGeometry x="240" y="820" width="240" height="30" as="geometry" />
        </mxCell>
        <mxCell id="FXwR8KTnnJj1yU0-3Iso-3" style="edgeStyle=orthogonalEdgeStyle;rounded=0;orthogonalLoop=1;jettySize=auto;html=1;entryX=0.5;entryY=1;entryDx=0;entryDy=0;strokeColor=#e51400;strokeWidth=3;" parent="WIyWlLk6GJQsqaUBKTNV-1" source="KZHoiBi9bxjTLL4KjkRE-1" target="FXwR8KTnnJj1yU0-3Iso-1" edge="1">
          <mxGeometry relative="1" as="geometry">
            <Array as="points">
              <mxPoint x="540" y="560" />
              <mxPoint x="540" y="560" />
            </Array>
          </mxGeometry>
        </mxCell>
        <mxCell id="KZHoiBi9bxjTLL4KjkRE-1" value="&lt;font style=&quot;font-size: 18px;&quot;&gt;API-Server&lt;/font&gt;" style="rounded=0;whiteSpace=wrap;html=1;strokeWidth=3;fillColor=#e51400;fontColor=#ffffff;strokeColor=none;" parent="WIyWlLk6GJQsqaUBKTNV-1" vertex="1">
          <mxGeometry x="360" y="600" width="240" height="30" as="geometry" />
        </mxCell>
        <mxCell id="KZHoiBi9bxjTLL4KjkRE-2" value="&lt;font style=&quot;font-size: 18px;&quot;&gt;ETCD&lt;/font&gt;" style="rounded=0;whiteSpace=wrap;html=1;strokeWidth=3;fillColor=#60a917;fontColor=#ffffff;strokeColor=none;" parent="WIyWlLk6GJQsqaUBKTNV-1" vertex="1">
          <mxGeometry x="480" y="320" width="120" height="60" as="geometry" />
        </mxCell>
        <mxCell id="a1D5JyXYqdKVJsgyKpfg-9" style="edgeStyle=orthogonalEdgeStyle;rounded=0;orthogonalLoop=1;jettySize=auto;html=1;entryX=0.5;entryY=0;entryDx=0;entryDy=0;strokeColor=#6a00ff;strokeWidth=3;" parent="WIyWlLk6GJQsqaUBKTNV-1" source="KZHoiBi9bxjTLL4KjkRE-3" target="KZHoiBi9bxjTLL4KjkRE-13" edge="1">
          <mxGeometry relative="1" as="geometry">
            <mxPoint x="320" y="230" as="targetPoint" />
            <Array as="points">
              <mxPoint x="300" y="280" />
              <mxPoint x="700" y="280" />
            </Array>
          </mxGeometry>
        </mxCell>
        <mxCell id="KZHoiBi9bxjTLL4KjkRE-3" value="&lt;font style=&quot;font-size: 18px;&quot;&gt;Worker&lt;/font&gt;" style="rounded=0;whiteSpace=wrap;html=1;strokeWidth=3;fillColor=#6a00ff;fontColor=#ffffff;strokeColor=none;" parent="WIyWlLk6GJQsqaUBKTNV-1" vertex="1">
          <mxGeometry x="240" y="320" width="120" height="60" as="geometry" />
        </mxCell>
        <mxCell id="a1D5JyXYqdKVJsgyKpfg-6" style="edgeStyle=orthogonalEdgeStyle;rounded=0;orthogonalLoop=1;jettySize=auto;html=1;entryX=0.5;entryY=1;entryDx=0;entryDy=0;strokeColor=#f0a30a;strokeWidth=3;" parent="WIyWlLk6GJQsqaUBKTNV-1" source="KZHoiBi9bxjTLL4KjkRE-5" target="KZHoiBi9bxjTLL4KjkRE-3" edge="1">
          <mxGeometry relative="1" as="geometry">
            <Array as="points">
              <mxPoint x="300" y="440" />
              <mxPoint x="300" y="440" />
            </Array>
          </mxGeometry>
        </mxCell>
        <mxCell id="KZHoiBi9bxjTLL4KjkRE-5" value="&lt;font style=&quot;font-size: 18px;&quot;&gt;Load&lt;br&gt;Balancer&lt;/font&gt;" style="rounded=1;whiteSpace=wrap;html=1;fillColor=#0050ef;fontColor=#ffffff;strokeColor=#001DBC;shadow=1;" parent="WIyWlLk6GJQsqaUBKTNV-1" vertex="1">
          <mxGeometry x="240" y="470" width="120" height="50" as="geometry" />
        </mxCell>
        <mxCell id="a1D5JyXYqdKVJsgyKpfg-1" value="" style="edgeStyle=orthogonalEdgeStyle;rounded=0;orthogonalLoop=1;jettySize=auto;html=1;entryX=0.25;entryY=1;entryDx=0;entryDy=0;strokeColor=#f0a30a;strokeWidth=3;" parent="WIyWlLk6GJQsqaUBKTNV-1" source="KZHoiBi9bxjTLL4KjkRE-8" target="KZHoiBi9bxjTLL4KjkRE-1" edge="1">
          <mxGeometry relative="1" as="geometry">
            <mxPoint x="440" y="660" as="targetPoint" />
          </mxGeometry>
        </mxCell>
        <mxCell id="KZHoiBi9bxjTLL4KjkRE-8" value="&lt;font style=&quot;font-size: 18px;&quot;&gt;Load&lt;br&gt;Balancer&lt;/font&gt;" style="rounded=1;whiteSpace=wrap;html=1;fillColor=#0050ef;fontColor=#ffffff;strokeColor=#001DBC;shadow=1;" parent="WIyWlLk6GJQsqaUBKTNV-1" vertex="1">
          <mxGeometry x="360" y="710" width="120" height="50" as="geometry" />
        </mxCell>
        <mxCell id="idu0Sjzik6azphSrO8bc-0" value="" style="edgeStyle=orthogonalEdgeStyle;rounded=0;orthogonalLoop=1;jettySize=auto;html=1;strokeColor=#6a00ff;strokeWidth=3;entryX=1;entryY=0.5;entryDx=0;entryDy=0;exitX=0;exitY=0.5;exitDx=0;exitDy=0;" parent="WIyWlLk6GJQsqaUBKTNV-1" source="KZHoiBi9bxjTLL4KjkRE-13" target="KZHoiBi9bxjTLL4KjkRE-8" edge="1">
          <mxGeometry relative="1" as="geometry">
            <mxPoint x="660" y="735" as="sourcePoint" />
          </mxGeometry>
        </mxCell>
        <mxCell id="KZHoiBi9bxjTLL4KjkRE-13" value="&lt;font style=&quot;font-size: 18px;&quot;&gt;Polling&lt;/font&gt;" style="rounded=1;whiteSpace=wrap;html=1;fillColor=#1ba1e2;fontColor=#ffffff;strokeColor=#006EAF;align=center;glass=0;shadow=0;" parent="WIyWlLk6GJQsqaUBKTNV-1" vertex="1">
          <mxGeometry x="640" y="720" width="120" height="30" as="geometry" />
        </mxCell>
        <mxCell id="xpS-KBFIXC9AamnDAr9m-0" value="&lt;font color=&quot;#ffffff&quot; style=&quot;font-size: 18px;&quot;&gt;&lt;b&gt;Controller&lt;/b&gt;&lt;/font&gt;" style="text;html=1;strokeColor=none;fillColor=none;align=center;verticalAlign=middle;whiteSpace=wrap;rounded=0;" parent="WIyWlLk6GJQsqaUBKTNV-1" vertex="1">
          <mxGeometry x="370" y="535" width="100" height="30" as="geometry" />
        </mxCell>
        <mxCell id="FXwR8KTnnJj1yU0-3Iso-0" style="edgeStyle=orthogonalEdgeStyle;rounded=0;orthogonalLoop=1;jettySize=auto;html=1;entryX=0.5;entryY=1;entryDx=0;entryDy=0;strokeColor=#f0a30a;strokeWidth=3;exitX=0.25;exitY=0;exitDx=0;exitDy=0;" parent="WIyWlLk6GJQsqaUBKTNV-1" source="KZHoiBi9bxjTLL4KjkRE-0" target="KZHoiBi9bxjTLL4KjkRE-5" edge="1">
          <mxGeometry relative="1" as="geometry">
            <Array as="points" />
            <mxPoint x="310" y="480" as="sourcePoint" />
            <mxPoint x="310" y="390" as="targetPoint" />
          </mxGeometry>
        </mxCell>
        <mxCell id="FXwR8KTnnJj1yU0-3Iso-1" value="&lt;font style=&quot;font-size: 18px;&quot;&gt;Load&lt;br&gt;Balancer&lt;/font&gt;" style="rounded=1;whiteSpace=wrap;html=1;fillColor=#0050ef;fontColor=#ffffff;strokeColor=#001DBC;shadow=1;" parent="WIyWlLk6GJQsqaUBKTNV-1" vertex="1">
          <mxGeometry x="480" y="470" width="120" height="50" as="geometry" />
        </mxCell>
        <mxCell id="FXwR8KTnnJj1yU0-3Iso-5" style="edgeStyle=orthogonalEdgeStyle;rounded=0;orthogonalLoop=1;jettySize=auto;html=1;entryX=0.5;entryY=1;entryDx=0;entryDy=0;strokeColor=#e51400;strokeWidth=3;exitX=0.5;exitY=0;exitDx=0;exitDy=0;" parent="WIyWlLk6GJQsqaUBKTNV-1" source="FXwR8KTnnJj1yU0-3Iso-1" target="KZHoiBi9bxjTLL4KjkRE-2" edge="1">
          <mxGeometry relative="1" as="geometry">
            <mxPoint x="550" y="610" as="sourcePoint" />
            <mxPoint x="550" y="530" as="targetPoint" />
            <Array as="points">
              <mxPoint x="540" y="430" />
              <mxPoint x="540" y="430" />
            </Array>
          </mxGeometry>
        </mxCell>
      </root>
    </mxGraphModel>
  </diagram>
</mxfile>
